<svg xmlns="http://www.w3.org/2000/svg" viewBox="0 0 6.57 9.21"><defs><style>.cls-1{fill:#fff;}.cls-2{fill:#998d95;}</style></defs><title>comment_pin</title><g id="レイヤー_2" data-name="レイヤー 2"><g id="レイヤー_1-2" data-name="レイヤー 1"><path class="cls-1" d="M6.42,3.29A3.13,3.13,0,0,0,2.94.17,3.14,3.14,0,0,0,1,5.4H1a9.93,9.93,0,0,1,2,3.39.39.39,0,0,0,.73,0A10.27,10.27,0,0,1,5.6,5.4h0A3.12,3.12,0,0,0,6.42,3.29Z"/><path class="cls-2" d="M3.29,9.21h0a.56.56,0,0,1-.51-.37A9.85,9.85,0,0,0,.86,5.5,3.26,3.26,0,0,1,0,2.92,3.3,3.3,0,0,1,2.92,0,3.28,3.28,0,0,1,6.57,3.29,3.25,3.25,0,0,1,5.71,5.5,10.19,10.19,0,0,0,3.79,8.84.53.53,0,0,1,3.29,9.21ZM3.29.3,3,.32a3,3,0,0,0-1.87,5,10.3,10.3,0,0,1,2,3.44.23.23,0,0,0,.22.16h0a.23.23,0,0,0,.22-.16,10.27,10.27,0,0,1,2-3.44,3,3,0,0,0,.78-2,3,3,0,0,0-1-2.23A3,3,0,0,0,3.29.3Z"/><path class="cls-2" d="M2.69,5.45H2.4V4.76a1.1,1.1,0,0,1-.95-1.09v-.8a1.11,1.11,0,0,1,1.1-1.11H4a1.11,1.11,0,0,1,1.1,1.11v.8A1.1,1.1,0,0,1,4,4.77H3.36ZM2.55,2.06a.8.8,0,0,0-.8.81v.8a.8.8,0,0,0,.8.8H2.7V5l.54-.54H4a.8.8,0,0,0,.8-.8v-.8A.8.8,0,0,0,4,2.06Z"/><rect class="cls-2" x="2.38" y="2.84" width="1.82" height="0.3"/><rect class="cls-2" x="2.38" y="3.39" width="1.17" height="0.3"/></g></g></svg>