<svg xmlns="http://www.w3.org/2000/svg" viewBox="0 0 6.54 6.54"><defs><style>.cls-1{fill:#fff;}.cls-2{fill:#998d95;}</style></defs><title>comment_mini</title><g id="レイヤー_2" data-name="レイヤー 2"><g id="レイヤー_1-2" data-name="レイヤー 1"><path class="cls-1" d="M4.58.27H2A1.69,1.69,0,0,0,.27,2V3.38A1.69,1.69,0,0,0,2,5.07v1.2h.13l1.2-1.2H4.58A1.69,1.69,0,0,0,6.27,3.38V2A1.69,1.69,0,0,0,4.58.27Z"/><path class="cls-2" d="M4.58,0H2A2,2,0,0,0,0,2V3.38A2,2,0,0,0,1.69,5.32V6.54h.52l1.2-1.2H4.58a2,2,0,0,0,2-2V2A2,2,0,0,0,4.58,0ZM6,3.38A1.41,1.41,0,0,1,4.58,4.8H3.18l-1,1v-1H2A1.42,1.42,0,0,1,.53,3.38V2A1.43,1.43,0,0,1,2,.53H4.58A1.42,1.42,0,0,1,6,2Z"/><rect class="cls-2" x="1.66" y="1.91" width="3.23" height="0.53"/><rect class="cls-2" x="1.66" y="2.88" width="2.08" height="0.53"/></g></g></svg>