<svg xmlns="http://www.w3.org/2000/svg" viewBox="0 0 7.3 7.3"><defs><style>.cls-1{fill:none;}.cls-2{fill:#fff;}.cls-3{fill:#998d95;}</style></defs><title>comment_box</title><g id="レイヤー_2" data-name="レイヤー 2"><g id="レイヤー_1-2" data-name="レイヤー 1"><rect class="cls-1" width="7.3" height="7.3"/><path class="cls-2" d="M4.88.92H2.42A1.58,1.58,0,0,0,.84,2.5V3.83A1.58,1.58,0,0,0,2.42,5.41V6.54h.13L3.67,5.41H4.88A1.58,1.58,0,0,0,6.46,3.83V2.5A1.58,1.58,0,0,0,4.88.92Z"/><path class="cls-3" d="M2.61,6.69H2.27V5.56A1.73,1.73,0,0,1,.69,3.83V2.5A1.72,1.72,0,0,1,2.42.77H4.88A1.73,1.73,0,0,1,6.61,2.5V3.83A1.73,1.73,0,0,1,4.88,5.56H3.73ZM2.42,1.07A1.43,1.43,0,0,0,1,2.5V3.83A1.43,1.43,0,0,0,2.42,5.26h.15v1l1-1H4.88A1.43,1.43,0,0,0,6.31,3.83V2.5A1.43,1.43,0,0,0,4.88,1.07Z"/><rect class="cls-3" x="2.14" y="2.56" width="3.02" height="0.3"/><rect class="cls-3" x="2.14" y="3.46" width="1.95" height="0.3"/></g></g></svg>