<svg xmlns="http://www.w3.org/2000/svg" viewBox="0 0 10.25 10.25"><defs><style>.facebook_cls-1{fill:#4267b2;}.facebook_cls-2{fill:#fff;}.facebook_cls-3{fill:none;}</style></defs><title>facebook</title><g id="レイヤー_2" data-name="レイヤー 2"><g id="レイヤー_1-2" data-name="レイヤー 1"><path class="facebook_cls-1" d="M8,2H2.3A.35.35,0,0,0,2,2.3V8a.35.35,0,0,0,.35.35h3V5.84H4.52v-1h.82V4.17A1.15,1.15,0,0,1,6.57,2.91a5,5,0,0,1,.74,0V3.8h-.5c-.4,0-.48.19-.48.47v.61h1l-.12,1H6.33V8.3H8A.35.35,0,0,0,8.3,8h0V2.3A.35.35,0,0,0,8,2Z"/><path id="f-2" class="facebook_cls-2" d="M6.33,8.3V5.84h.83l.12-1h-1V4.27c0-.28.08-.47.48-.47h.5V3a5,5,0,0,0-.74,0A1.15,1.15,0,0,0,5.34,4.17v.71H4.52v1h.82V8.3Z"/><rect class="facebook_cls-3" width="10.25" height="10.25"/></g></g></svg>