<svg xmlns="http://www.w3.org/2000/svg" viewBox="0 0 7.28 7.28"><defs><style>.cls-1{fill:#fff;}.cls-2{fill:#998d95;}.cls-3{fill:none;}</style></defs><title>figure_tool</title><g id="レイヤー_2" data-name="レイヤー 2"><g id="レイヤー_1-2" data-name="レイヤー 1"><path class="cls-1" d="M6,5.36V1.92a.59.59,0,0,0,.58-.59.59.59,0,1,0-1.17,0H1.92A.59.59,0,0,0,1.33.74a.58.58,0,0,0-.59.59.59.59,0,0,0,.59.59V5.36A.59.59,0,1,0,1.92,6H5.36A.59.59,0,1,0,6,5.36Z"/><path class="cls-2" d="M6.1,5.23V2.05A.74.74,0,0,0,6,.59a.73.73,0,0,0-.72.59H2.05a.74.74,0,1,0-.87.87V5.23a.73.73,0,0,0,.15,1.45.74.74,0,0,0,.72-.58H5.23a.73.73,0,1,0,.87-.87ZM6,.89a.44.44,0,0,1,0,.88A.44.44,0,1,1,6,.89ZM.89,1.33a.44.44,0,1,1,.44.44A.44.44,0,0,1,.89,1.33Zm.44,5.05A.44.44,0,0,1,.89,6a.44.44,0,0,1,.88,0A.44.44,0,0,1,1.33,6.38Zm3.9-.58H2.05a.74.74,0,0,0-.57-.57V2.05a.75.75,0,0,0,.57-.57H5.23a.74.74,0,0,0,.57.57V5.23A.73.73,0,0,0,5.23,5.8ZM6,6.38A.44.44,0,0,1,5.51,6,.44.44,0,0,1,6,5.51.44.44,0,0,1,6.38,6,.43.43,0,0,1,6,6.38Z"/><rect class="cls-3" width="7.28" height="7.28"/></g></g></svg>