<svg xmlns="http://www.w3.org/2000/svg" viewBox="0 0 6.58 9.21"><defs><style>.cls-1{fill:#fff;}.cls-2{fill:#998d95;}</style></defs><title>image_pin</title><g id="レイヤー_2" data-name="レイヤー 2"><g id="レイヤー_1-2" data-name="レイヤー 1"><path class="cls-1" d="M6.43,3.29A3.14,3.14,0,1,0,1,5.4H1a9.93,9.93,0,0,1,2,3.39.38.38,0,0,0,.73,0A10.27,10.27,0,0,1,5.6,5.4h0A3.13,3.13,0,0,0,6.43,3.29Z"/><path class="cls-2" d="M3.29,9.21a.55.55,0,0,1-.51-.37A9.94,9.94,0,0,0,.86,5.5,3.25,3.25,0,0,1,0,2.92,3.31,3.31,0,0,1,2.92,0,3.28,3.28,0,0,1,5.71,5.5,10.29,10.29,0,0,0,3.79,8.84.53.53,0,0,1,3.29,9.21ZM3.29.3,3,.32a3,3,0,0,0-1.87,5,10.25,10.25,0,0,1,2,3.45.23.23,0,0,0,.44,0,10.39,10.39,0,0,1,2-3.45,3,3,0,0,0,.79-2,3,3,0,0,0-1-2.23A3,3,0,0,0,3.29.3Z"/><path class="cls-2" d="M5.17,5.19H1.41V1.44H5.17Zm-3.46-.3H4.86V1.74H1.71Z"/><path class="cls-2" d="M2.55,3.1a.47.47,0,1,0-.47-.46A.47.47,0,0,0,2.55,3.1Zm0-.63a.17.17,0,0,1,.16.17.16.16,0,0,1-.32,0A.17.17,0,0,1,2.55,2.47Z"/><polygon class="cls-2" points="3.67 3.09 3.01 3.88 2.62 3.44 1.82 4.4 2.06 4.59 2.62 3.9 3.23 4.59 3.45 4.4 3.21 4.11 3.67 3.56 4.54 4.59 4.77 4.4 3.67 3.09"/></g></g></svg>