<svg xmlns="http://www.w3.org/2000/svg" viewBox="0 0 7.3 7.3"><defs><style>.cls-1{fill:#fff;}.cls-2{fill:#998d95;}.cls-3{fill:none;}</style></defs><title>image_box</title><g id="レイヤー_2" data-name="レイヤー 2"><g id="レイヤー_1-2" data-name="レイヤー 1"><rect class="cls-1" x="0.87" y="0.87" width="5.55" height="5.55"/><path class="cls-2" d="M6.57,6.57H.72V.72H6.57ZM1,6.27H6.27V1H1Z"/><path class="cls-2" d="M2.46,3.21a.66.66,0,1,0-.65-.65A.65.65,0,0,0,2.46,3.21Zm0-1a.36.36,0,1,1,0,.71.36.36,0,0,1,0-.71Z"/><polygon class="cls-2" points="4.27 3.42 3.2 4.7 2.57 3.98 1.36 5.45 1.6 5.64 2.58 4.44 3.62 5.64 3.85 5.44 3.4 4.93 4.27 3.89 5.72 5.64 5.96 5.44 4.27 3.42"/><rect class="cls-3" width="7.3" height="7.3"/></g></g></svg>