<svg xmlns="http://www.w3.org/2000/svg" viewBox="0 0 7.3 7.3"><defs><style>.layers_cls-1{fill:#fff;}.layers_cls-2{fill:#998d95;}.layers_cls-3{fill:none;}</style></defs><title>layers</title><g id="レイヤー_2" data-name="レイヤー 2"><g id="レイヤー_1-2" data-name="レイヤー 1"><path class="layers_cls-1" d="M3.39,6.57.44,4.66a.19.19,0,0,1,0-.31l3.11-2a.23.23,0,0,1,.2,0l3.11,2a.19.19,0,0,1,0,.31l-3,1.91A.47.47,0,0,1,3.39,6.57Z"/><path class="layers_cls-2" d="M3.65,6.8a.59.59,0,0,1-.34-.1h0l-3-1.92A.33.33,0,0,1,.2,4.5a.33.33,0,0,1,.15-.27l3.12-2a.33.33,0,0,1,.36,0l3.11,2a.31.31,0,0,1,.15.27.31.31,0,0,1-.15.28L4,6.7A.61.61,0,0,1,3.65,6.8Zm-.18-.35a.32.32,0,0,0,.35,0l3-1.92a0,0,0,0,0,0,0v0l-3.12-2h0l-3.11,2,0,0,0,0,3,1.92Z"/><path class="layers_cls-1" d="M3.39,5.74.44,3.83a.19.19,0,0,1,0-.31l3.11-2a.18.18,0,0,1,.2,0l3.11,2a.19.19,0,0,1,0,.31l-3,1.91A.47.47,0,0,1,3.39,5.74Z"/><path class="layers_cls-2" d="M3.65,6a.59.59,0,0,1-.34-.1h0L.35,4A.33.33,0,0,1,.2,3.68.33.33,0,0,1,.35,3.4l3.12-2a.33.33,0,0,1,.36,0l3.11,2a.31.31,0,0,1,.15.28A.31.31,0,0,1,6.94,4L4,5.87A.61.61,0,0,1,3.65,6Zm-.18-.35a.32.32,0,0,0,.35,0l3-1.92v0a0,0,0,0,0,0,0l-3.12-2h0l-3.11,2s0,0,0,0l0,0,3,1.92Z"/><path class="layers_cls-1" d="M6.86,3l-3,1.92a.47.47,0,0,1-.51,0L.44,3a.18.18,0,0,1,0-.3l3.11-2a.18.18,0,0,1,.2,0l3.11,2A.18.18,0,0,1,6.86,3Z"/><path class="layers_cls-2" d="M3.65,5.14A.59.59,0,0,1,3.31,5l-3-1.92A.33.33,0,0,1,.2,2.85a.33.33,0,0,1,.15-.28l3.12-2a.33.33,0,0,1,.36,0l3.11,2a.31.31,0,0,1,.15.28.31.31,0,0,1-.15.27L4,5A.61.61,0,0,1,3.65,5.14ZM3.65.8h0l-3.11,2s0,0,0,0l0,0,3,1.92a.32.32,0,0,0,.35,0l3-1.92v0a0,0,0,0,0,0,0L3.66.8Z"/><rect class="layers_cls-3" width="7.3" height="7.3"/></g></g></svg>