<svg xmlns="http://www.w3.org/2000/svg" viewBox="0 0 7.3 7.3"><defs><style>.layer_cls-1{fill:#bcb7bb;}.layer_cls-2{fill:#fff;}.layer_cls-3{fill:none;}</style></defs><title>layer</title><g id="レイヤー_2" data-name="レイヤー 2"><g id="レイヤー_1-2" data-name="レイヤー 1"><path class="layer_cls-1" d="M3.39,5.74.44,3.83a.19.19,0,0,1,0-.31l3.11-2a.18.18,0,0,1,.2,0l3.11,2a.19.19,0,0,1,0,.31l-3,1.91A.47.47,0,0,1,3.39,5.74Z"/><path class="layer_cls-2" d="M3.65,6a.59.59,0,0,1-.34-.1h0L.35,4A.33.33,0,0,1,.2,3.68.33.33,0,0,1,.35,3.4l3.12-2a.33.33,0,0,1,.36,0l3.11,2a.31.31,0,0,1,.15.28A.31.31,0,0,1,6.94,4L4,5.87A.61.61,0,0,1,3.65,6Zm-.18-.35a.32.32,0,0,0,.35,0l3-1.92v0a0,0,0,0,0,0,0l-3.12-2h0l-3.11,2s0,0,0,0l0,0,3,1.92Z"/><rect class="layer_cls-3" width="7.3" height="7.3"/></g></g></svg>