<svg xmlns="http://www.w3.org/2000/svg" viewBox="0 0 7.3 7.3"><defs><style>.like_cls-1{fill:none;}.like_cls-2{fill:#fff;}.like_cls-3{fill:#998d95;}</style></defs><title>like</title><g id="レイヤー_2" data-name="レイヤー 2"><g id="レイヤー_1-2" data-name="レイヤー 1"><rect class="like_cls-1" width="7.3" height="7.3"/><path class="like_cls-2" d="M5.22,1.07A1.57,1.57,0,0,0,3.65,2.65a1.58,1.58,0,1,0-3.15,0C.5,3.46.88,5,3.19,6c.14.07.44.18.44.18h0L4.11,6C6.41,5,6.8,3.46,6.8,2.65A1.58,1.58,0,0,0,5.22,1.07Z"/><path class="like_cls-3" d="M3.65,6.37H3.57l-.44-.18C.62,5.07.35,3.34.35,2.65a1.73,1.73,0,0,1,3.3-.71A1.73,1.73,0,0,1,7,2.65c0,.69-.27,2.42-2.78,3.53l-.45.18Zm0-.29h0ZM2.07,1.22A1.43,1.43,0,0,0,.65,2.65c0,.63.25,2.22,2.6,3.26l.4.16.4-.16c2.34-1,2.6-2.63,2.6-3.26a1.43,1.43,0,1,0-2.85,0,.15.15,0,0,1-.3,0A1.43,1.43,0,0,0,2.07,1.22Z"/></g></g></svg>