<svg xmlns="http://www.w3.org/2000/svg" viewBox="0 0 6.58 9.21"><defs><style>.cls-1{fill:#fff;}.cls-2{fill:#998d95;}</style></defs><title>link_pin</title><g id="レイヤー_2" data-name="レイヤー 2"><g id="レイヤー_1-2" data-name="レイヤー 1"><path class="cls-1" d="M6.42,3.29A3.13,3.13,0,0,0,2.94.17,3.14,3.14,0,0,0,1,5.4H1a9.93,9.93,0,0,1,2,3.39.39.39,0,0,0,.73,0A10.27,10.27,0,0,1,5.6,5.4h0A3.12,3.12,0,0,0,6.42,3.29Z"/><path class="cls-2" d="M3.29,9.21a.55.55,0,0,1-.51-.37A9.85,9.85,0,0,0,.86,5.5,3.26,3.26,0,0,1,0,2.92,3.31,3.31,0,0,1,2.92,0,3.25,3.25,0,0,1,5.48.84,3.26,3.26,0,0,1,5.71,5.5,10.19,10.19,0,0,0,3.79,8.84.53.53,0,0,1,3.29,9.21ZM3.29.3,3,.32a3,3,0,0,0-1.87,5,10.3,10.3,0,0,1,2,3.44.23.23,0,0,0,.44,0,10.27,10.27,0,0,1,2-3.44,3,3,0,0,0,.78-2,3,3,0,0,0-1-2.23A3,3,0,0,0,3.29.3Z"/><polygon class="cls-2" points="4.27 3.94 2.75 3.94 2.75 3.64 3.96 3.64 3.96 2.28 1.7 2.28 1.7 3.64 2.17 3.64 2.17 3.94 1.4 3.94 1.4 1.98 4.27 1.98 4.27 3.94"/><polygon class="cls-2" points="5.18 4.76 2.31 4.76 2.31 2.81 3.83 2.81 3.83 3.11 2.61 3.11 2.61 4.47 4.88 4.47 4.88 3.11 4.4 3.11 4.4 2.81 5.18 2.81 5.18 4.76"/></g></g></svg>