<svg xmlns="http://www.w3.org/2000/svg" viewBox="0 0 158.45 158.45"><defs><style>.cls-1{fill:#ea4480;}.cls-2{fill:#33292f;}.cls-3{fill:#ead963;}.cls-4{fill:#7cd6e0;}.cls-5{fill:none;}</style></defs><title>logo</title><g id="レイヤー_2" data-name="レイヤー 2"><g id="レイヤー_1-2" data-name="レイヤー 1"><path class="cls-1" d="M13.8,132.89q-.39.75-1,.75t-.93-.75L6.05,121.62v20.09a.75.75,0,0,1-.38.69,1.44,1.44,0,0,1-.8.24,1.4,1.4,0,0,1-.81-.24.76.76,0,0,1-.36-.69V117.78a1,1,0,0,1,.36-.89,1.34,1.34,0,0,1,.81-.25,1.43,1.43,0,0,1,1.09.48,5.77,5.77,0,0,1,.8,1.16l6.11,11.8L19,118.28a5.39,5.39,0,0,1,.8-1.16,1.43,1.43,0,0,1,1.09-.48,1.32,1.32,0,0,1,.83.25,1,1,0,0,1,.34.89v23.93a.76.76,0,0,1-.36.69,1.47,1.47,0,0,1-1.61,0,.75.75,0,0,1-.38-.69v-20Z"/><path class="cls-2" d="M28.13,117.89a1.49,1.49,0,0,1,1.08.42,1.38,1.38,0,0,1,.45,1,1.41,1.41,0,0,1-.45,1,1.44,1.44,0,0,1-1.08.45,1.58,1.58,0,0,1-1.14-.45,1.38,1.38,0,0,1-.46-1,1.35,1.35,0,0,1,.46-1A1.64,1.64,0,0,1,28.13,117.89Zm0,7.93a1.43,1.43,0,0,1,.84.23.71.71,0,0,1,.33.62v15a.83.83,0,0,1-.33.64,1.28,1.28,0,0,1-.84.29,1.19,1.19,0,0,1-.82-.29.85.85,0,0,1-.32-.64v-15a.73.73,0,0,1,.32-.62A1.33,1.33,0,0,1,28.13,125.82Z"/><path class="cls-2" d="M35.21,115.5a1.45,1.45,0,0,1,.83.23.73.73,0,0,1,.34.63v25.35a.81.81,0,0,1-.34.64,1.23,1.23,0,0,1-.83.29,1.17,1.17,0,0,1-.82-.29.82.82,0,0,1-.32-.64V116.36a.73.73,0,0,1,.32-.63A1.37,1.37,0,0,1,35.21,115.5Z"/><path class="cls-2" d="M42.57,115.5a1.45,1.45,0,0,1,.83.23.73.73,0,0,1,.34.63v25.35a.81.81,0,0,1-.34.64,1.23,1.23,0,0,1-.83.29,1.17,1.17,0,0,1-.82-.29.82.82,0,0,1-.32-.64V116.36a.73.73,0,0,1,.32-.63A1.37,1.37,0,0,1,42.57,115.5Z"/><path class="cls-2" d="M54.66,125.6a6.8,6.8,0,0,1,2.52.48,6.65,6.65,0,0,1,2.12,1.34,6.41,6.41,0,0,1,1.45,2,6.14,6.14,0,0,1,.56,2.61,3.78,3.78,0,0,1-.27,1.6,2.09,2.09,0,0,1-.69.86,2.21,2.21,0,0,1-1,.34c-.38,0-.76,0-1.14,0h-8v1.31a4.12,4.12,0,0,0,1.53,3.38,6,6,0,0,0,3.88,1.25,5.5,5.5,0,0,0,2.88-.7,7.76,7.76,0,0,0,.78-.49,1,1,0,0,1,.61-.23.86.86,0,0,1,.71.39,1.22,1.22,0,0,1,.28.71,1.17,1.17,0,0,1-.37.73,3.78,3.78,0,0,1-1.07.76,8,8,0,0,1-1.67.61,9.32,9.32,0,0,1-2.22.24,9.47,9.47,0,0,1-3.08-.48A7.24,7.24,0,0,1,50,141a6.45,6.45,0,0,1-1.58-2.14,6.57,6.57,0,0,1-.57-2.77v-4a6,6,0,0,1,.54-2.51,6.69,6.69,0,0,1,1.45-2.1A6.8,6.8,0,0,1,52,126.12,6.72,6.72,0,0,1,54.66,125.6Zm2.63,7.61a2.85,2.85,0,0,0,1.42-.23c.24-.15.35-.48.35-1a4.25,4.25,0,0,0-.32-1.65,4.71,4.71,0,0,0-.9-1.44,4.1,4.1,0,0,0-1.41-1,4.28,4.28,0,0,0-1.81-.38,4.43,4.43,0,0,0-1.72.34,4.38,4.38,0,0,0-1.41.93,4.5,4.5,0,0,0-1,1.38,4.11,4.11,0,0,0-.36,1.69v1.35Z"/><path class="cls-1" d="M72.36,117.53a.77.77,0,0,1,.34-.68,1.37,1.37,0,0,1,.73-.21H86a.75.75,0,0,1,.67.32,1.19,1.19,0,0,1,.22.71,1.4,1.4,0,0,1-.23.8.76.76,0,0,1-.66.34H74.71v9.78h7.74a.74.74,0,0,1,.62.32,1.26,1.26,0,0,1,.23.75,1.18,1.18,0,0,1-.2.65.7.7,0,0,1-.65.31H74.71v11.13a.71.71,0,0,1-.37.67,1.63,1.63,0,0,1-.8.22,1.59,1.59,0,0,1-.82-.22.72.72,0,0,1-.36-.67Z"/><path class="cls-2" d="M92.67,125.6a6.76,6.76,0,0,1,2.52.48,6.54,6.54,0,0,1,3.58,3.38,6.29,6.29,0,0,1,.55,2.61,3.78,3.78,0,0,1-.27,1.6,2.09,2.09,0,0,1-.69.86,2.21,2.21,0,0,1-1,.34c-.38,0-.76,0-1.14,0h-8v1.31a4.12,4.12,0,0,0,1.53,3.38,5.92,5.92,0,0,0,3.87,1.25,5.5,5.5,0,0,0,2.88-.7,7.76,7.76,0,0,0,.78-.49,1,1,0,0,1,.61-.23.86.86,0,0,1,.71.39,1.22,1.22,0,0,1,.28.71,1.17,1.17,0,0,1-.37.73,3.78,3.78,0,0,1-1.07.76,8,8,0,0,1-1.67.61,9.32,9.32,0,0,1-2.22.24,9.52,9.52,0,0,1-3.08-.48A7.1,7.1,0,0,1,88,141a6.34,6.34,0,0,1-1.59-2.14,6.72,6.72,0,0,1-.56-2.77v-4a6,6,0,0,1,.53-2.51,6.56,6.56,0,0,1,1.46-2.1,6.91,6.91,0,0,1,4.8-1.94Zm2.63,7.61a2.85,2.85,0,0,0,1.42-.23c.24-.15.36-.48.36-1a4.44,4.44,0,0,0-.32-1.65,4.94,4.94,0,0,0-.91-1.44,4.15,4.15,0,0,0-1.4-1,4.33,4.33,0,0,0-1.82-.38,4.43,4.43,0,0,0-1.72.34,4.46,4.46,0,0,0-2.37,2.31,4.26,4.26,0,0,0-.35,1.69v1.35Z"/><path class="cls-2" d="M109.38,142.88a6.39,6.39,0,0,1-2.63-.55,6.79,6.79,0,0,1-2.15-1.47,7,7,0,0,1-1.44-2.14,6.07,6.07,0,0,1-.54-2.52v-9.5a.82.82,0,0,1,.34-.6,1.27,1.27,0,0,1,.84-.28,1.2,1.2,0,0,1,.8.28.82.82,0,0,1,.34.6v9.5a4.4,4.4,0,0,0,.33,1.67,4.72,4.72,0,0,0,1,1.46,4.59,4.59,0,0,0,1.42,1,4.13,4.13,0,0,0,3.46,0,4.47,4.47,0,0,0,1.41-1,5.09,5.09,0,0,0,1-1.45,4.23,4.23,0,0,0,.36-1.71v-9.53a.75.75,0,0,1,.33-.61,1.43,1.43,0,0,1,.84-.24,1.35,1.35,0,0,1,.82.24.76.76,0,0,1,.32.61v9.53a6.22,6.22,0,0,1-.54,2.56,6.78,6.78,0,0,1-1.45,2.12,7.32,7.32,0,0,1-2.16,1.45A6.24,6.24,0,0,1,109.38,142.88Z"/><path class="cls-2" d="M121.58,117.89a1.53,1.53,0,0,1,1.08.42,1.38,1.38,0,0,1,.45,1,1.41,1.41,0,0,1-.45,1,1.47,1.47,0,0,1-1.08.45,1.58,1.58,0,0,1-1.14-.45,1.38,1.38,0,0,1-.46-1,1.35,1.35,0,0,1,.46-1A1.64,1.64,0,0,1,121.58,117.89Zm0,7.93a1.38,1.38,0,0,1,.83.23.7.7,0,0,1,.34.62v15a.81.81,0,0,1-.34.64,1.23,1.23,0,0,1-.83.29,1.17,1.17,0,0,1-.82-.29.85.85,0,0,1-.32-.64v-15a.73.73,0,0,1,.32-.62A1.31,1.31,0,0,1,121.58,125.82Z"/><path class="cls-2" d="M128.65,115.5a1.51,1.51,0,0,1,.84.23.75.75,0,0,1,.34.63v25.35a.84.84,0,0,1-.34.64,1.28,1.28,0,0,1-.84.29,1.21,1.21,0,0,1-.82-.29.85.85,0,0,1-.32-.64V116.36a.76.76,0,0,1,.32-.63A1.42,1.42,0,0,1,128.65,115.5Z"/><path class="cls-2" d="M136,115.5a1.51,1.51,0,0,1,.84.23.75.75,0,0,1,.34.63v25.35a.84.84,0,0,1-.34.64,1.28,1.28,0,0,1-.84.29,1.21,1.21,0,0,1-.82-.29.84.84,0,0,1-.31-.64V116.36a.75.75,0,0,1,.31-.63A1.42,1.42,0,0,1,136,115.5Z"/><path class="cls-2" d="M148.1,125.6a6.81,6.81,0,0,1,2.53.48,6.6,6.6,0,0,1,2.11,1.34,6.44,6.44,0,0,1,1.46,2,6.14,6.14,0,0,1,.55,2.61,4,4,0,0,1-.26,1.6,2,2,0,0,1-.7.86,2.13,2.13,0,0,1-1,.34c-.38,0-.76,0-1.14,0h-8v1.31a4.12,4.12,0,0,0,1.53,3.38,5.94,5.94,0,0,0,3.88,1.25,5.5,5.5,0,0,0,2.88-.7,7.76,7.76,0,0,0,.78-.49,1,1,0,0,1,.6-.23.86.86,0,0,1,.72.39,1.29,1.29,0,0,1,.28.71,1.17,1.17,0,0,1-.37.73,3.93,3.93,0,0,1-1.07.76,8,8,0,0,1-1.67.61,9.32,9.32,0,0,1-2.22.24,9.47,9.47,0,0,1-3.08-.48,7.14,7.14,0,0,1-2.42-1.36,6.45,6.45,0,0,1-1.58-2.14,6.57,6.57,0,0,1-.57-2.77v-4a6.14,6.14,0,0,1,.53-2.51,6.89,6.89,0,0,1,1.46-2.1,6.8,6.8,0,0,1,2.17-1.42A6.71,6.71,0,0,1,148.1,125.6Zm2.63,7.61a2.87,2.87,0,0,0,1.43-.23,1.11,1.11,0,0,0,.35-1,4.25,4.25,0,0,0-.32-1.65,4.71,4.71,0,0,0-.9-1.44,4.19,4.19,0,0,0-1.41-1,4.31,4.31,0,0,0-1.81-.38,4.52,4.52,0,0,0-1.73.34,4.45,4.45,0,0,0-1.4.93,4.18,4.18,0,0,0-1,1.38,4.11,4.11,0,0,0-.36,1.69v1.35Z"/><path class="cls-3" d="M120.23,73.51l-4.79-3.1-1.65,1.07L119.25,75a1.35,1.35,0,0,1,.63,1.15,1.33,1.33,0,0,1-.63,1.15L82,101.51a5,5,0,0,1-5.47,0L39.2,77.32a1.32,1.32,0,0,1-.62-1.15A1.34,1.34,0,0,1,39.2,75l5.46-3.54L43,70.41l-4.78,3.1a3.16,3.16,0,0,0,0,5.32L75.51,103a6.82,6.82,0,0,0,7.43,0l37.29-24.18a3.18,3.18,0,0,0,0-5.32Z"/><path class="cls-4" d="M120.23,63.06,115.44,60,113.79,61l5.46,3.54a1.37,1.37,0,0,1,0,2.31L82,91.05a5,5,0,0,1-5.47,0L39.2,66.87a1.39,1.39,0,0,1,0-2.31L44.66,61,43,60l-4.78,3.11a3.16,3.16,0,0,0,0,5.31L75.51,92.56a6.88,6.88,0,0,0,7.43,0l37.29-24.19a3.17,3.17,0,0,0,0-5.31Z"/><path class="cls-1" d="M120.23,52.6l-24.61-16a16.92,16.92,0,1,0-32.79,0l-24.6,16a3.16,3.16,0,0,0,0,5.32L75.51,82.1a6.82,6.82,0,0,0,7.43,0l37.29-24.18a3.18,3.18,0,0,0,0-5.32Zm-56-21.8A15.18,15.18,0,0,1,77.53,17.45a16.51,16.51,0,0,1,1.72-.09,14.92,14.92,0,0,1,10.08,3.87,15.1,15.1,0,0,1,1,21.47A52.34,52.34,0,0,0,80.24,60.34a1.07,1.07,0,0,1-2,0A52.33,52.33,0,0,0,68.05,42.68,15,15,0,0,1,64.18,30.8Zm55.07,25.61L82,80.6a5,5,0,0,1-5.47,0L39.2,56.41a1.38,1.38,0,0,1,0-2.3L63.39,38.42a16.72,16.72,0,0,0,3.32,5.45,50.81,50.81,0,0,1,9.81,17.05,2.85,2.85,0,0,0,5.41,0,50.81,50.81,0,0,1,9.79-17,17,17,0,0,0,3.35-5.47l24.18,15.69a1.36,1.36,0,0,1,0,2.3Z"/><path class="cls-1" d="M79.23,37a4.48,4.48,0,1,1,4.48-4.48A4.49,4.49,0,0,1,79.23,37Zm0-7.17a2.69,2.69,0,1,0,2.68,2.69A2.68,2.68,0,0,0,79.23,29.81Z"/><rect class="cls-5" width="158.45" height="158.45"/></g></g></svg>