<svg xmlns="http://www.w3.org/2000/svg" viewBox="0 0 122.47 103.23"><defs><style>.cls-1{fill:#ea4480;}.cls-2{fill:#33292f;}.cls-3{fill:#ead963;}.cls-4{fill:#7cd6e0;}</style></defs><title>logo</title><g id="レイヤー_2" data-name="レイヤー 2"><g id="レイヤー_1-2" data-name="レイヤー 1"><path class="cls-1" d="M8.19,95.12c-.21.41-.47.61-.78.61s-.54-.2-.75-.61L1.9,86v16.29a.64.64,0,0,1-.3.57A1.25,1.25,0,0,1,1,103a1.21,1.21,0,0,1-.66-.18.65.65,0,0,1-.29-.57V82.87a.84.84,0,0,1,.29-.72A1.14,1.14,0,0,1,1,82a1.15,1.15,0,0,1,.88.39,4.38,4.38,0,0,1,.65.93l5,9.58,5-9.58a4.38,4.38,0,0,1,.65-.93,1.15,1.15,0,0,1,.88-.39,1.13,1.13,0,0,1,.67.2.83.83,0,0,1,.28.72v19.4a.65.65,0,0,1-.29.57,1.28,1.28,0,0,1-1.31,0,.63.63,0,0,1-.31-.57V86.07Z"/><path class="cls-2" d="M19.81,83a1.23,1.23,0,0,1,.88.34,1.12,1.12,0,0,1,.36.84,1.16,1.16,0,0,1-.36.85,1.21,1.21,0,0,1-.88.36,1.29,1.29,0,0,1-.93-.36,1.13,1.13,0,0,1-.37-.85,1.09,1.09,0,0,1,.37-.84A1.32,1.32,0,0,1,19.81,83Zm0,6.43a1.17,1.17,0,0,1,.67.18.59.59,0,0,1,.28.51v12.19a.64.64,0,0,1-.28.52,1.09,1.09,0,0,1-1.34,0,.68.68,0,0,1-.26-.52V90.08a.62.62,0,0,1,.26-.51A1.17,1.17,0,0,1,19.81,89.39Z"/><path class="cls-2" d="M25.54,81a1.21,1.21,0,0,1,.68.18.61.61,0,0,1,.28.51v20.55a.67.67,0,0,1-.28.52,1,1,0,0,1-.68.23.92.92,0,0,1-.66-.23.68.68,0,0,1-.26-.52V81.72a.62.62,0,0,1,.26-.51A1.12,1.12,0,0,1,25.54,81Z"/><path class="cls-2" d="M31.51,81a1.21,1.21,0,0,1,.68.18.6.6,0,0,1,.27.51v20.55a.66.66,0,0,1-.27.52,1,1,0,0,1-.68.23.92.92,0,0,1-.66-.23.68.68,0,0,1-.26-.52V81.72a.62.62,0,0,1,.26-.51A1.12,1.12,0,0,1,31.51,81Z"/><path class="cls-2" d="M41.31,89.21a5.33,5.33,0,0,1,4.95,3.13,5,5,0,0,1,.44,2.12,3.23,3.23,0,0,1-.21,1.3,1.64,1.64,0,0,1-.56.69,1.66,1.66,0,0,1-.81.27c-.31,0-.62,0-.92,0H37.68v1.06a3.32,3.32,0,0,0,1.24,2.74,4.77,4.77,0,0,0,3.14,1,5.05,5.05,0,0,0,1.42-.17,5.41,5.41,0,0,0,.92-.39,7.1,7.1,0,0,0,.63-.4.85.85,0,0,1,.49-.19.67.67,0,0,1,.58.32,1,1,0,0,1,.23.57.92.92,0,0,1-.3.59,2.78,2.78,0,0,1-.87.62,5.71,5.71,0,0,1-1.35.49,7.06,7.06,0,0,1-1.8.21,7.67,7.67,0,0,1-2.5-.39,5.79,5.79,0,0,1-2-1.11A5.1,5.1,0,0,1,36.27,100a5.36,5.36,0,0,1-.46-2.25V94.52a4.87,4.87,0,0,1,.43-2,5.46,5.46,0,0,1,1.18-1.7,5.56,5.56,0,0,1,1.76-1.16A5.47,5.47,0,0,1,41.31,89.21Zm2.14,6.17a2.45,2.45,0,0,0,1.15-.18.91.91,0,0,0,.29-.8,3.66,3.66,0,0,0-1-2.5,3.42,3.42,0,0,0-1.14-.83,3.51,3.51,0,0,0-1.47-.3,3.55,3.55,0,0,0-1.39.27,3.76,3.76,0,0,0-1.14.75A3.57,3.57,0,0,0,38,92.92a3.37,3.37,0,0,0-.29,1.37v1.09Z"/><path class="cls-1" d="M55.67,82.67a.61.61,0,0,1,.27-.55,1.16,1.16,0,0,1,.6-.17h10.2a.63.63,0,0,1,.55.26,1,1,0,0,1,.17.57,1.15,1.15,0,0,1-.18.65.61.61,0,0,1-.54.28H57.57v7.93h6.28a.58.58,0,0,1,.5.26,1,1,0,0,1,.19.6,1,1,0,0,1-.16.53.57.57,0,0,1-.53.25H57.57v9a.58.58,0,0,1-.3.55,1.24,1.24,0,0,1-.65.17,1.2,1.2,0,0,1-.66-.17.6.6,0,0,1-.29-.55Z"/><path class="cls-2" d="M72.13,89.21a5.49,5.49,0,0,1,2.05.39,5.4,5.4,0,0,1,1.71,1.08,5.53,5.53,0,0,1,1.19,1.66,5.12,5.12,0,0,1,.44,2.12,3.23,3.23,0,0,1-.21,1.3,1.64,1.64,0,0,1-.56.69,1.7,1.7,0,0,1-.81.27c-.31,0-.62,0-.92,0H68.5v1.06a3.32,3.32,0,0,0,1.24,2.74,4.77,4.77,0,0,0,3.14,1,4.93,4.93,0,0,0,1.41-.17,5.21,5.21,0,0,0,.93-.39,7.1,7.1,0,0,0,.63-.4.82.82,0,0,1,.49-.19.69.69,0,0,1,.58.32,1,1,0,0,1,.23.57.92.92,0,0,1-.3.59,2.9,2.9,0,0,1-.87.62,5.88,5.88,0,0,1-1.35.49,7.09,7.09,0,0,1-1.81.21,7.65,7.65,0,0,1-2.49-.39,5.79,5.79,0,0,1-2-1.11A5,5,0,0,1,67.09,100a5.36,5.36,0,0,1-.46-2.25V94.52a4.87,4.87,0,0,1,.43-2,5.46,5.46,0,0,1,1.18-1.7A5.56,5.56,0,0,1,70,89.63,5.47,5.47,0,0,1,72.13,89.21Zm2.14,6.17a2.45,2.45,0,0,0,1.15-.18.91.91,0,0,0,.29-.8,3.67,3.67,0,0,0-.26-1.34,3.82,3.82,0,0,0-.74-1.16,3.42,3.42,0,0,0-1.14-.83,3.51,3.51,0,0,0-1.47-.3,3.55,3.55,0,0,0-1.39.27,3.76,3.76,0,0,0-1.14.75,3.57,3.57,0,0,0-.78,1.13,3.37,3.37,0,0,0-.29,1.37v1.09Z"/><path class="cls-2" d="M85.68,103.23a5.15,5.15,0,0,1-2.13-.45,5.58,5.58,0,0,1-2.91-2.93,5,5,0,0,1-.44-2v-7.7a.65.65,0,0,1,.28-.49,1,1,0,0,1,.68-.23.92.92,0,0,1,.64.23.62.62,0,0,1,.28.49v7.7a3.54,3.54,0,0,0,.27,1.35,3.88,3.88,0,0,0,.77,1.18,3.71,3.71,0,0,0,1.15.84,3.24,3.24,0,0,0,1.41.32,3.3,3.3,0,0,0,1.4-.31,3.68,3.68,0,0,0,1.14-.82A3.91,3.91,0,0,0,89,99.19a3.45,3.45,0,0,0,.29-1.38V90.08a.59.59,0,0,1,.27-.49,1.08,1.08,0,0,1,.68-.2,1,1,0,0,1,.66.2.61.61,0,0,1,.26.49v7.73a5,5,0,0,1-.43,2.07,5.55,5.55,0,0,1-1.18,1.72,6.06,6.06,0,0,1-1.75,1.18A5.07,5.07,0,0,1,85.68,103.23Z"/><path class="cls-2" d="M95.57,83a1.21,1.21,0,0,1,.88.34,1.12,1.12,0,0,1,.36.84,1.16,1.16,0,0,1-.36.85,1.19,1.19,0,0,1-.88.36,1.28,1.28,0,0,1-.92-.36,1.14,1.14,0,0,1-.38-.85,1.1,1.1,0,0,1,.38-.84A1.31,1.31,0,0,1,95.57,83Zm0,6.43a1.21,1.21,0,0,1,.68.18.6.6,0,0,1,.27.51v12.19a.66.66,0,0,1-.27.52,1,1,0,0,1-.68.23.92.92,0,0,1-.66-.23.68.68,0,0,1-.26-.52V90.08a.62.62,0,0,1,.26-.51A1.12,1.12,0,0,1,95.57,89.39Z"/><path class="cls-2" d="M101.31,81a1.23,1.23,0,0,1,.68.18.6.6,0,0,1,.27.51v20.55a.66.66,0,0,1-.27.52,1,1,0,0,1-.68.23.92.92,0,0,1-.66-.23.65.65,0,0,1-.26-.52V81.72a.59.59,0,0,1,.26-.51A1.12,1.12,0,0,1,101.31,81Z"/><path class="cls-2" d="M107.28,81a1.2,1.2,0,0,1,.67.18.59.59,0,0,1,.28.51v20.55a.64.64,0,0,1-.28.52,1,1,0,0,1-.67.23,1,1,0,0,1-.67-.23.68.68,0,0,1-.26-.52V81.72a.62.62,0,0,1,.26-.51A1.17,1.17,0,0,1,107.28,81Z"/><path class="cls-2" d="M117.08,89.21a5.44,5.44,0,0,1,2,.39,5.34,5.34,0,0,1,1.72,1.08A5.5,5.5,0,0,1,122,92.34a5,5,0,0,1,.45,2.12,3,3,0,0,1-.22,1.3,1.57,1.57,0,0,1-.56.69,1.66,1.66,0,0,1-.81.27c-.3,0-.61,0-.92,0h-6.51v1.06a3.34,3.34,0,0,0,1.23,2.74,4.8,4.8,0,0,0,3.15,1,5,5,0,0,0,1.41-.17,5.41,5.41,0,0,0,.92-.39c.25-.14.46-.28.64-.4a.8.8,0,0,1,.49-.19.66.66,0,0,1,.57.32,1,1,0,0,1,.23.57.92.92,0,0,1-.3.59,2.85,2.85,0,0,1-.86.62,6,6,0,0,1-1.36.49,7.06,7.06,0,0,1-1.8.21,7.6,7.6,0,0,1-2.49-.39,5.69,5.69,0,0,1-2-1.11A5.13,5.13,0,0,1,112,100a5.36,5.36,0,0,1-.46-2.25V94.52a5,5,0,0,1,.43-2,5.6,5.6,0,0,1,2.94-2.86A5.55,5.55,0,0,1,117.08,89.21Zm2.13,6.17a2.42,2.42,0,0,0,1.15-.18c.2-.13.29-.39.29-.8a3.47,3.47,0,0,0-.26-1.34,3.68,3.68,0,0,0-1.87-2,3.51,3.51,0,0,0-1.47-.3,3.6,3.6,0,0,0-1.4.27,4,4,0,0,0-1.14.75,3.74,3.74,0,0,0-.78,1.13,3.36,3.36,0,0,0-.28,1.37v1.09Z"/><path class="cls-3" d="M94.48,47l-3.89-2.52-1.33.87,4.42,2.87a1.11,1.11,0,0,1,0,1.87L63.45,69.68a4.09,4.09,0,0,1-4.43,0L28.78,50.07a1.12,1.12,0,0,1,0-1.87l4.43-2.87-1.34-.87L28,47a2.57,2.57,0,0,0,0,4.31L58.22,70.9a5.53,5.53,0,0,0,6,0L94.48,51.29a2.57,2.57,0,0,0,0-4.31Z"/><path class="cls-4" d="M94.48,38.5,90.59,36l-1.33.86,4.42,2.87a1.11,1.11,0,0,1,0,1.87L63.45,61.2a4,4,0,0,1-4.43,0L28.78,41.59a1.12,1.12,0,0,1,0-1.87l4.43-2.87L31.87,36,28,38.5a2.59,2.59,0,0,0-1.17,2.16A2.56,2.56,0,0,0,28,42.81L58.22,62.42a5.53,5.53,0,0,0,6,0L94.48,42.81a2.56,2.56,0,0,0,1.17-2.15A2.59,2.59,0,0,0,94.48,38.5Z"/><path class="cls-1" d="M94.48,30l-20-12.94A14,14,0,0,0,75,13.73a13.73,13.73,0,1,0-27,3.36L28,30a2.57,2.57,0,0,0,0,4.31l30.23,19.6a5.53,5.53,0,0,0,6,0l30.24-19.6a2.57,2.57,0,0,0,0-4.31ZM49,12.35A12.29,12.29,0,0,1,59.86,1.53a13,13,0,0,1,1.39-.08,12.15,12.15,0,0,1,8.18,3.14A12.23,12.23,0,0,1,70.28,22,42.63,42.63,0,0,0,62.06,36.3a.87.87,0,0,1-1.65,0A42.63,42.63,0,0,0,52.18,22,12.13,12.13,0,0,1,49,12.35ZM93.68,33.12,63.45,52.72a4,4,0,0,1-4.43,0L28.78,33.12a1.12,1.12,0,0,1,0-1.87L48.39,18.53A13.89,13.89,0,0,0,51.09,23,41.07,41.07,0,0,1,59,36.77a2.31,2.31,0,0,0,4.39,0A41.07,41.07,0,0,1,71.37,23a13.82,13.82,0,0,0,2.71-4.43l19.6,12.72a1.11,1.11,0,0,1,0,1.87Z"/><path class="cls-1" d="M61.23,17.36a3.64,3.64,0,1,1,3.64-3.63A3.64,3.64,0,0,1,61.23,17.36Zm0-5.81a2.18,2.18,0,1,0,2.18,2.18A2.17,2.17,0,0,0,61.23,11.55Z"/></g></g></svg>