<svg xmlns="http://www.w3.org/2000/svg" viewBox="0 0 80.91 16.38"><defs><style>.cls-1{fill:#ea4480;}.cls-2{fill:#33292f;}.cls-3{fill:#ead963;}.cls-4{fill:#7cd6e0;}</style></defs><title>logo_mini</title><g id="レイヤー_2" data-name="レイヤー 2"><g id="レイヤー_1-2" data-name="レイヤー 1"><path class="cls-1" d="M24.9,9.88c-.1.2-.23.3-.38.3s-.26-.1-.37-.3L21.82,5.4v8a.31.31,0,0,1-.14.27.63.63,0,0,1-.32.1.61.61,0,0,1-.33-.1.31.31,0,0,1-.14-.27V3.88A.4.4,0,0,1,21,3.53a.54.54,0,0,1,.33-.1.56.56,0,0,1,.43.19,2.07,2.07,0,0,1,.32.46l2.43,4.69L27,4.08a2.05,2.05,0,0,1,.31-.46.58.58,0,0,1,.44-.19.52.52,0,0,1,.33.1.39.39,0,0,1,.13.35v9.51a.31.31,0,0,1-.14.27.58.58,0,0,1-.32.1.6.6,0,0,1-.32-.1.29.29,0,0,1-.15-.27V5.45Z"/><path class="cls-2" d="M30.6,3.92a.61.61,0,0,1,.43.17.54.54,0,0,1,.18.41.58.58,0,0,1-.18.42.61.61,0,0,1-.43.17.64.64,0,0,1-.45-.17A.55.55,0,0,1,30,4.5a.52.52,0,0,1,.19-.41A.64.64,0,0,1,30.6,3.92Zm0,3.15a.58.58,0,0,1,.33.09.29.29,0,0,1,.13.25v6a.31.31,0,0,1-.13.25.51.51,0,0,1-.66,0,.33.33,0,0,1-.12-.25v-6a.3.3,0,0,1,.12-.25A.58.58,0,0,1,30.6,7.07Z"/><path class="cls-2" d="M33.41,3a.52.52,0,0,1,.33.1.28.28,0,0,1,.14.24V13.39a.33.33,0,0,1-.14.25.51.51,0,0,1-.66,0,.33.33,0,0,1-.12-.25V3.31a.29.29,0,0,1,.12-.24A.52.52,0,0,1,33.41,3Z"/><path class="cls-2" d="M36.33,3a.53.53,0,0,1,.34.1.27.27,0,0,1,.13.24V13.39a.31.31,0,0,1-.13.25.49.49,0,0,1-.34.12.44.44,0,0,1-.32-.12.31.31,0,0,1-.13-.25V3.31A.27.27,0,0,1,36,3.07.47.47,0,0,1,36.33,3Z"/><path class="cls-2" d="M41.14,7a2.62,2.62,0,0,1,1,.19,2.45,2.45,0,0,1,.84.53,2.51,2.51,0,0,1,.8,1.85,1.37,1.37,0,0,1-.11.63.73.73,0,0,1-.27.34.87.87,0,0,1-.4.14l-.45,0H39.36v.52A1.62,1.62,0,0,0,40,12.55a2.34,2.34,0,0,0,1.54.5A2.22,2.22,0,0,0,42.2,13a1.9,1.9,0,0,0,.45-.19,3.54,3.54,0,0,0,.31-.19.4.4,0,0,1,.24-.1.34.34,0,0,1,.28.16.48.48,0,0,1,.12.28.45.45,0,0,1-.15.29,1.35,1.35,0,0,1-.43.3,2.94,2.94,0,0,1-.66.25,3.91,3.91,0,0,1-.88.09,3.63,3.63,0,0,1-1.22-.19,2.77,2.77,0,0,1-1-.54,2.58,2.58,0,0,1-.85-1.95V9.59a2.46,2.46,0,0,1,.21-1A2.69,2.69,0,0,1,41.14,7Zm1,3a1.17,1.17,0,0,0,.57-.09.45.45,0,0,0,.14-.39,1.69,1.69,0,0,0-.13-.66,1.72,1.72,0,0,0-.36-.57,1.69,1.69,0,0,0-.55-.4,1.85,1.85,0,0,0-1.41,0,2,2,0,0,0-.56.37,1.75,1.75,0,0,0-.38.55,1.71,1.71,0,0,0-.14.67V10Z"/><path class="cls-1" d="M48.18,3.78a.3.3,0,0,1,.13-.27.51.51,0,0,1,.29-.08h5a.32.32,0,0,1,.27.12.49.49,0,0,1,.08.29.54.54,0,0,1-.09.31.3.3,0,0,1-.26.14H49.11V8.17h3.07a.3.3,0,0,1,.25.13.51.51,0,0,1,.09.3.5.5,0,0,1-.08.26.29.29,0,0,1-.26.12H49.11V13.4a.29.29,0,0,1-.15.27.62.62,0,0,1-.32.09.57.57,0,0,1-.32-.09.29.29,0,0,1-.14-.27Z"/><path class="cls-2" d="M56.24,7a2.67,2.67,0,0,1,1,.19,2.45,2.45,0,0,1,.84.53,2.51,2.51,0,0,1,.8,1.85,1.52,1.52,0,0,1-.11.63.69.69,0,0,1-.28.34.83.83,0,0,1-.39.14l-.45,0h-3.2v.52a1.62,1.62,0,0,0,.61,1.34,2.36,2.36,0,0,0,1.54.5A2.22,2.22,0,0,0,57.3,13a1.9,1.9,0,0,0,.45-.19l.32-.19a.33.33,0,0,1,.52.06.53.53,0,0,1,.11.28.45.45,0,0,1-.15.29,1.42,1.42,0,0,1-.42.3,3.14,3.14,0,0,1-.66.25,4,4,0,0,1-.89.09,3.67,3.67,0,0,1-1.22-.19,2.82,2.82,0,0,1-1-.54,2.52,2.52,0,0,1-.63-.85,2.64,2.64,0,0,1-.23-1.1V9.59a2.31,2.31,0,0,1,.22-1,2.65,2.65,0,0,1,.58-.83,2.69,2.69,0,0,1,.86-.57A2.83,2.83,0,0,1,56.24,7Zm1,3a1.15,1.15,0,0,0,.56-.09c.1-.06.14-.19.14-.39a1.88,1.88,0,0,0-.12-.66,2.12,2.12,0,0,0-.36-.57,1.73,1.73,0,0,0-1.28-.55,1.77,1.77,0,0,0-.69.13,1.9,1.9,0,0,0-.55.37,2,2,0,0,0-.39.55,1.71,1.71,0,0,0-.14.67V10Z"/><path class="cls-2" d="M62.88,13.85a2.49,2.49,0,0,1-1-.22,2.72,2.72,0,0,1-.86-.58,2.88,2.88,0,0,1-.57-.85,2.46,2.46,0,0,1-.21-1V7.42a.32.32,0,0,1,.13-.24.53.53,0,0,1,.34-.11.49.49,0,0,1,.31.11.34.34,0,0,1,.14.24V11.2a1.69,1.69,0,0,0,.13.66,1.88,1.88,0,0,0,.38.58,1.76,1.76,0,0,0,.56.41,1.66,1.66,0,0,0,.69.16,1.58,1.58,0,0,0,.69-.15,2,2,0,0,0,.56-.4,2.24,2.24,0,0,0,.38-.58,1.8,1.8,0,0,0,.14-.68V7.41a.3.3,0,0,1,.13-.24.53.53,0,0,1,.34-.1.47.47,0,0,1,.32.1.3.3,0,0,1,.13.24V11.2a2.47,2.47,0,0,1-.21,1,2.67,2.67,0,0,1-.58.85,2.81,2.81,0,0,1-.86.57A2.43,2.43,0,0,1,62.88,13.85Z"/><path class="cls-2" d="M67.73,3.92a.61.61,0,0,1,.43.17.54.54,0,0,1,.18.41.58.58,0,0,1-.18.42.61.61,0,0,1-.43.17.64.64,0,0,1-.45-.17.59.59,0,0,1-.19-.42.55.55,0,0,1,.19-.41A.64.64,0,0,1,67.73,3.92Zm0,3.15a.58.58,0,0,1,.33.09.3.3,0,0,1,.14.25v6a.33.33,0,0,1-.14.25.48.48,0,0,1-.33.12.44.44,0,0,1-.32-.12.31.31,0,0,1-.13-.25v-6a.29.29,0,0,1,.13-.25A.53.53,0,0,1,67.73,7.07Z"/><path class="cls-2" d="M70.54,3a.52.52,0,0,1,.33.1.28.28,0,0,1,.14.24V13.39a.33.33,0,0,1-.14.25.48.48,0,0,1-.33.12.44.44,0,0,1-.32-.12.31.31,0,0,1-.13-.25V3.31a.27.27,0,0,1,.13-.24A.47.47,0,0,1,70.54,3Z"/><path class="cls-2" d="M73.47,3a.52.52,0,0,1,.33.1.27.27,0,0,1,.13.24V13.39a.31.31,0,0,1-.13.25.48.48,0,0,1-.33.12.46.46,0,0,1-.33-.12.34.34,0,0,1-.13-.25V3.31a.29.29,0,0,1,.13-.24A.5.5,0,0,1,73.47,3Z"/><path class="cls-2" d="M78.27,7a2.62,2.62,0,0,1,1,.19,2.45,2.45,0,0,1,.84.53,2.51,2.51,0,0,1,.8,1.85,1.53,1.53,0,0,1-.1.63.75.75,0,0,1-.28.34.83.83,0,0,1-.39.14l-.46,0H76.49v.52a1.62,1.62,0,0,0,.61,1.34,2.36,2.36,0,0,0,1.54.5,2.22,2.22,0,0,0,.69-.09,1.9,1.9,0,0,0,.45-.19,3.54,3.54,0,0,0,.31-.19.4.4,0,0,1,.24-.1.36.36,0,0,1,.29.16.53.53,0,0,1,.11.28.45.45,0,0,1-.15.29,1.42,1.42,0,0,1-.42.3,3.24,3.24,0,0,1-.67.25,3.91,3.91,0,0,1-.88.09,3.67,3.67,0,0,1-1.22-.19,2.82,2.82,0,0,1-1-.54,2.52,2.52,0,0,1-.63-.85,2.64,2.64,0,0,1-.23-1.1V9.59a2.46,2.46,0,0,1,.21-1,3,3,0,0,1,.58-.83,2.93,2.93,0,0,1,.86-.57A2.84,2.84,0,0,1,78.27,7Zm1,3a1.15,1.15,0,0,0,.56-.09c.1-.06.14-.19.14-.39a1.88,1.88,0,0,0-.12-.66,2.12,2.12,0,0,0-.36-.57A1.85,1.85,0,0,0,79,7.9a1.85,1.85,0,0,0-1.41,0,1.76,1.76,0,0,0-.94.92,1.71,1.71,0,0,0-.14.67V10Z"/><path class="cls-3" d="M15.4,10.61l-.84-.55-.48.31,1,.67a.17.17,0,0,1,.07.13.17.17,0,0,1-.07.14L8.3,15.73a.86.86,0,0,1-.9,0L.59,11.31a.16.16,0,0,1-.07-.14A.15.15,0,0,1,.59,11l1-.67-.47-.31-.84.55a.64.64,0,0,0-.31.56.67.67,0,0,0,.31.57l6.81,4.42a1.36,1.36,0,0,0,.73.22,1.33,1.33,0,0,0,.73-.22l6.82-4.42a.69.69,0,0,0,.31-.57A.66.66,0,0,0,15.4,10.61Z"/><path class="cls-4" d="M15.4,8.7l-.84-.55-.48.31,1,.67a.17.17,0,0,1,.07.13.16.16,0,0,1-.07.13L8.3,13.81a.82.82,0,0,1-.9,0L.59,9.39a.14.14,0,0,1-.07-.13.15.15,0,0,1,.07-.13l1-.67-.47-.31L.31,8.7A.64.64,0,0,0,0,9.26a.67.67,0,0,0,.31.57l6.81,4.42a1.35,1.35,0,0,0,.73.21,1.32,1.32,0,0,0,.73-.21L15.4,9.83a.69.69,0,0,0,.31-.57A.66.66,0,0,0,15.4,8.7Z"/><path class="cls-1" d="M15.4,6.79,11,3.9A2.82,2.82,0,0,0,11,3.19,3.16,3.16,0,0,0,10,.82,3.12,3.12,0,0,0,7.5,0,3.2,3.2,0,0,0,4.68,2.83,3.19,3.19,0,0,0,4.76,3.9L.31,6.79A.64.64,0,0,0,0,7.35a.67.67,0,0,0,.31.57l6.81,4.42a1.35,1.35,0,0,0,.73.21,1.32,1.32,0,0,0,.73-.21L15.4,7.92a.69.69,0,0,0,.31-.57A.66.66,0,0,0,15.4,6.79ZM5.2,2.89A2.68,2.68,0,0,1,7.55.53h.31a2.62,2.62,0,0,1,1.78.68,2.69,2.69,0,0,1,.88,2A2.65,2.65,0,0,1,9.82,5,9.63,9.63,0,0,0,8,8.25a.09.09,0,0,1-.1.07.09.09,0,0,1-.09-.07A9.65,9.65,0,0,0,5.88,5,2.65,2.65,0,0,1,5.2,2.89Zm9.92,4.59L8.3,11.9a.82.82,0,0,1-.9,0L.59,7.48a.14.14,0,0,1-.07-.13.15.15,0,0,1,.07-.13L4.92,4.41a3.14,3.14,0,0,0,.57.92A9.18,9.18,0,0,1,7.27,8.42a.62.62,0,0,0,1.17,0,9.18,9.18,0,0,1,1.77-3.08,3.22,3.22,0,0,0,.58-.93l4.33,2.81a.17.17,0,0,1,.07.13A.16.16,0,0,1,15.12,7.48Z"/><path class="cls-1" d="M7.85,4.1a.91.91,0,1,0-.91-.91A.92.92,0,0,0,7.85,4.1Zm0-1.31a.4.4,0,0,1,0,.8.4.4,0,0,1,0-.8Z"/></g></g></svg>