<svg xmlns="http://www.w3.org/2000/svg" viewBox="0 0 161.92 35.78"><defs><style>.cls-1{fill:#ea4480;}.cls-2{fill:#33292f;}.cls-3{fill:#ead963;}.cls-4{fill:#7cd6e0;}.cls-5{fill:none;}</style></defs><title>logo_mini</title><g id="レイヤー_2" data-name="レイヤー 2"><g id="レイヤー_1-2" data-name="レイヤー 1"><path class="cls-1" d="M50.82,21.18c-.2.38-.45.57-.74.57s-.51-.19-.71-.57L44.85,12.5V28a.58.58,0,0,1-.29.53,1.16,1.16,0,0,1-1.24,0A.58.58,0,0,1,43,28V9.54a.74.74,0,0,1,.28-.68,1.05,1.05,0,0,1,.63-.2,1.12,1.12,0,0,1,.83.37,4.66,4.66,0,0,1,.62.89L50.11,19l4.71-9.1A4.23,4.23,0,0,1,55.43,9a1.13,1.13,0,0,1,.84-.37,1,1,0,0,1,.64.2.76.76,0,0,1,.26.68V28a.59.59,0,0,1-.27.53,1.11,1.11,0,0,1-.63.18,1.15,1.15,0,0,1-.62-.18.58.58,0,0,1-.29-.53V12.58Z"/><path class="cls-2" d="M61.85,9.62a1.17,1.17,0,0,1,.84.33,1.11,1.11,0,0,1,0,1.6,1.15,1.15,0,0,1-.84.35,1.22,1.22,0,0,1-.87-.35A1.07,1.07,0,0,1,61,10,1.24,1.24,0,0,1,61.85,9.62Zm0,6.11a1.13,1.13,0,0,1,.65.18.56.56,0,0,1,.26.48V28a.64.64,0,0,1-.26.49,1,1,0,0,1-.65.22.91.91,0,0,1-.63-.22A.64.64,0,0,1,61,28V16.39a.57.57,0,0,1,.24-.48A1.07,1.07,0,0,1,61.85,15.73Z"/><path class="cls-2" d="M67.3,7.79A1.13,1.13,0,0,1,68,8a.55.55,0,0,1,.26.48V28a.64.64,0,0,1-.26.49,1,1,0,0,1-.65.22.91.91,0,0,1-.63-.22.64.64,0,0,1-.24-.49V8.45A.56.56,0,0,1,66.67,8,1.07,1.07,0,0,1,67.3,7.79Z"/><path class="cls-2" d="M73,7.79a1.08,1.08,0,0,1,.64.18.53.53,0,0,1,.26.48V28a.61.61,0,0,1-.26.49,1,1,0,0,1-1.27,0A.64.64,0,0,1,72.1,28V8.45A.56.56,0,0,1,72.34,8,1.07,1.07,0,0,1,73,7.79Z"/><path class="cls-2" d="M82.28,15.56a5.4,5.4,0,0,1,2,.37A5.06,5.06,0,0,1,87,18.54a4.76,4.76,0,0,1,.42,2,3.08,3.08,0,0,1-.2,1.23,1.63,1.63,0,0,1-.54.66,1.72,1.72,0,0,1-.76.26,8.77,8.77,0,0,1-.88,0H78.83v1A3.16,3.16,0,0,0,80,26.35a4.56,4.56,0,0,0,3,1,4.5,4.5,0,0,0,1.34-.16,4.31,4.31,0,0,0,.88-.37,6.32,6.32,0,0,0,.6-.39.87.87,0,0,1,.47-.17.66.66,0,0,1,.55.3,1,1,0,0,1,.22.55.92.92,0,0,1-.29.56,3.1,3.1,0,0,1-.82.59,6.63,6.63,0,0,1-1.29.46,6.83,6.83,0,0,1-1.71.19,7.18,7.18,0,0,1-2.37-.37,5.3,5.3,0,0,1-1.86-1.05,4.82,4.82,0,0,1-1.22-1.64,5.12,5.12,0,0,1-.44-2.14V20.6a4.74,4.74,0,0,1,.41-1.93,5.26,5.26,0,0,1,4.82-3.11Zm2,5.86a2.24,2.24,0,0,0,1.09-.17.86.86,0,0,0,.28-.76,3.5,3.5,0,0,0-.25-1.27,3.59,3.59,0,0,0-.7-1.11,3.25,3.25,0,0,0-1.08-.78,3.37,3.37,0,0,0-1.4-.29,3.43,3.43,0,0,0-2.41,1,3.48,3.48,0,0,0-.74,1.06,3.22,3.22,0,0,0-.27,1.3v1Z"/><path class="cls-1" d="M95.92,9.35a.55.55,0,0,1,.26-.52,1,1,0,0,1,.56-.17h9.69a.59.59,0,0,1,.52.25,1,1,0,0,1,.17.55,1,1,0,0,1-.18.61.57.57,0,0,1-.51.26H97.72v7.54h6a.57.57,0,0,1,.48.24,1,1,0,0,1,.18.58.89.89,0,0,1-.15.5.55.55,0,0,1-.51.24h-6V28a.56.56,0,0,1-.28.52,1.22,1.22,0,0,1-.62.16,1.18,1.18,0,0,1-.63-.16.57.57,0,0,1-.27-.52Z"/><path class="cls-2" d="M111.55,15.56a5.36,5.36,0,0,1,2,.37,5.19,5.19,0,0,1,1.63,1,5,5,0,0,1,1.12,1.58,4.76,4.76,0,0,1,.42,2,3.08,3.08,0,0,1-.2,1.23,1.63,1.63,0,0,1-.54.66,1.72,1.72,0,0,1-.76.26,8.77,8.77,0,0,1-.88,0H108.1v1a3.16,3.16,0,0,0,1.18,2.6,4.56,4.56,0,0,0,3,1,4.62,4.62,0,0,0,1.35-.16,4.46,4.46,0,0,0,.87-.37,6.32,6.32,0,0,0,.6-.39.87.87,0,0,1,.47-.17.66.66,0,0,1,.55.3,1,1,0,0,1,.22.55.92.92,0,0,1-.29.56,3.1,3.1,0,0,1-.82.59,6.63,6.63,0,0,1-1.29.46,6.83,6.83,0,0,1-1.71.19,7.18,7.18,0,0,1-2.37-.37A5.3,5.3,0,0,1,108,27.45a4.82,4.82,0,0,1-1.22-1.64,5.12,5.12,0,0,1-.44-2.14V20.6a4.74,4.74,0,0,1,.41-1.93,5.3,5.3,0,0,1,2.8-2.71A5.27,5.27,0,0,1,111.55,15.56Zm2,5.86a2.22,2.22,0,0,0,1.09-.17c.19-.12.28-.37.28-.76a3.3,3.3,0,0,0-.25-1.27,3.59,3.59,0,0,0-.7-1.11,3.25,3.25,0,0,0-1.08-.78,3.34,3.34,0,0,0-1.4-.29,3.41,3.41,0,0,0-1.32.26,3.46,3.46,0,0,0-1.08.72,3.17,3.17,0,0,0-.74,1.06,3.07,3.07,0,0,0-.28,1.3v1Z"/><path class="cls-2" d="M124.42,28.87a4.94,4.94,0,0,1-2-.42,5.12,5.12,0,0,1-1.66-1.14,5.28,5.28,0,0,1-1.11-1.64,4.84,4.84,0,0,1-.41-2V16.41a.61.61,0,0,1,.26-.46.94.94,0,0,1,.64-.22.91.91,0,0,1,.62.22.61.61,0,0,1,.26.46v7.31a3.42,3.42,0,0,0,.26,1.29,3.47,3.47,0,0,0,.72,1.12,3.79,3.79,0,0,0,1.1.8,3.17,3.17,0,0,0,2.67,0,3.47,3.47,0,0,0,1.08-.78,3.83,3.83,0,0,0,.74-1.12,3.32,3.32,0,0,0,.27-1.32V16.39a.56.56,0,0,1,.27-.47,1,1,0,0,1,.64-.19,1,1,0,0,1,.63.19.58.58,0,0,1,.24.47v7.33a4.75,4.75,0,0,1-.41,2,5.1,5.1,0,0,1-1.12,1.63,5.64,5.64,0,0,1-1.66,1.12A4.86,4.86,0,0,1,124.42,28.87Z"/><path class="cls-2" d="M133.81,9.62a1.17,1.17,0,0,1,.84.33,1.11,1.11,0,0,1,0,1.6,1.15,1.15,0,0,1-.84.35,1.2,1.2,0,0,1-.87-.35,1.07,1.07,0,0,1,0-1.6A1.22,1.22,0,0,1,133.81,9.62Zm0,6.11a1.13,1.13,0,0,1,.65.18.56.56,0,0,1,.26.48V28a.64.64,0,0,1-.26.49,1,1,0,0,1-.65.22.91.91,0,0,1-.63-.22.64.64,0,0,1-.24-.49V16.39a.57.57,0,0,1,.24-.48A1.07,1.07,0,0,1,133.81,15.73Z"/><path class="cls-2" d="M139.26,7.79a1.13,1.13,0,0,1,.65.18.55.55,0,0,1,.26.48V28a.64.64,0,0,1-.26.49,1,1,0,0,1-.65.22.91.91,0,0,1-.63-.22.64.64,0,0,1-.24-.49V8.45a.56.56,0,0,1,.24-.48A1.07,1.07,0,0,1,139.26,7.79Z"/><path class="cls-2" d="M144.93,7.79a1.08,1.08,0,0,1,.64.18.53.53,0,0,1,.26.48V28a.61.61,0,0,1-.26.49,1,1,0,0,1-1.27,0,.66.66,0,0,1-.25-.49V8.45A.57.57,0,0,1,144.3,8,1.07,1.07,0,0,1,144.93,7.79Z"/><path class="cls-2" d="M154.24,15.56a5.31,5.31,0,0,1,1.94.37,5,5,0,0,1,1.63,1,5.05,5.05,0,0,1,1.13,1.58,4.76,4.76,0,0,1,.42,2,3.08,3.08,0,0,1-.2,1.23,1.63,1.63,0,0,1-.54.66,1.72,1.72,0,0,1-.76.26,8.77,8.77,0,0,1-.88,0h-6.19v1a3.16,3.16,0,0,0,1.18,2.6,4.56,4.56,0,0,0,3,1,4.5,4.5,0,0,0,1.34-.16,4.31,4.31,0,0,0,.88-.37,6.32,6.32,0,0,0,.6-.39.87.87,0,0,1,.47-.17.66.66,0,0,1,.55.3,1,1,0,0,1,.22.55.92.92,0,0,1-.29.56,3.1,3.1,0,0,1-.82.59,6.63,6.63,0,0,1-1.29.46,6.83,6.83,0,0,1-1.71.19,7.18,7.18,0,0,1-2.37-.37,5.3,5.3,0,0,1-1.86-1.05,4.82,4.82,0,0,1-1.22-1.64,5.12,5.12,0,0,1-.44-2.14V20.6a4.74,4.74,0,0,1,.41-1.93,5.26,5.26,0,0,1,4.82-3.11Zm2,5.86a2.24,2.24,0,0,0,1.09-.17.86.86,0,0,0,.28-.76,3.5,3.5,0,0,0-.25-1.27,3.59,3.59,0,0,0-.7-1.11,3.25,3.25,0,0,0-1.08-.78,3.37,3.37,0,0,0-1.4-.29,3.43,3.43,0,0,0-2.41,1,3.48,3.48,0,0,0-.74,1.06,3.22,3.22,0,0,0-.27,1.3v1Z"/><path class="cls-3" d="M32.4,22.58l-1.63-1-.92.6,2,1.29a.3.3,0,0,1,.14.26.27.27,0,0,1-.14.25L18.65,32.5a1.61,1.61,0,0,1-1.74,0L3.7,23.93a.3.3,0,0,1-.14-.25.3.3,0,0,1,.14-.26l2-1.29-.92-.6-1.63,1a1.31,1.31,0,0,0-.59,1.1,1.3,1.3,0,0,0,.59,1.09l13.21,8.57a2.59,2.59,0,0,0,2.83,0L32.4,24.77a1.31,1.31,0,0,0,.6-1.09A1.34,1.34,0,0,0,32.4,22.58Z"/><path class="cls-4" d="M32.4,18.88l-1.63-1.06-.92.6,2,1.3A.3.3,0,0,1,32,20a.3.3,0,0,1-.14.26L18.65,28.8a1.61,1.61,0,0,1-1.74,0L3.7,20.23A.3.3,0,0,1,3.56,20a.3.3,0,0,1,.14-.25l2-1.3-.92-.6L3.15,18.88a1.31,1.31,0,0,0,0,2.19l13.21,8.57a2.59,2.59,0,0,0,2.83,0L32.4,21.07a1.3,1.3,0,0,0,0-2.19Z"/><path class="cls-1" d="M32.4,15.17,23.78,9.59A5.8,5.8,0,0,0,24,8.21a6.18,6.18,0,0,0-12.33-.69,6.46,6.46,0,0,0,.15,2.06L3.15,15.17a1.33,1.33,0,0,0-.59,1.1,1.3,1.3,0,0,0,.59,1.1l13.21,8.56a2.59,2.59,0,0,0,2.83,0L32.4,17.37a1.31,1.31,0,0,0,0-2.2ZM12.63,7.62a5.19,5.19,0,0,1,4.56-4.56,5.83,5.83,0,0,1,.59,0,5.09,5.09,0,0,1,3.45,1.32,5.18,5.18,0,0,1,.36,7.35A18.74,18.74,0,0,0,18,18a.19.19,0,0,1-.18.14.19.19,0,0,1-.19-.14A18.74,18.74,0,0,0,14,11.69,5.14,5.14,0,0,1,12.63,7.62Zm19.22,8.9-13.2,8.57a1.61,1.61,0,0,1-1.74,0L3.7,16.53a.3.3,0,0,1-.14-.26A.27.27,0,0,1,3.7,16l8.4-5.45a6.4,6.4,0,0,0,1.1,1.79,17.57,17.57,0,0,1,3.44,6,1.2,1.2,0,0,0,2.27,0,17.67,17.67,0,0,1,3.43-6,6.37,6.37,0,0,0,1.13-1.79L31.85,16a.29.29,0,0,1,0,.5Z"/><path class="cls-1" d="M17.78,10A1.78,1.78,0,1,0,16,8.21,1.78,1.78,0,0,0,17.78,10Zm0-2.54a.77.77,0,1,1-.77.77A.76.76,0,0,1,17.78,7.44Z"/><rect class="cls-5" width="161.92" height="35.78"/></g></g></svg>