<svg xmlns="http://www.w3.org/2000/svg" viewBox="0 0 7.3 7.3"><defs><style>.cls-1{fill:#fff;}.cls-2{fill:#998d95;}.cls-3{fill:none;}</style></defs><title>move_tool</title><g id="レイヤー_2" data-name="レイヤー 2"><g id="レイヤー_1-2" data-name="レイヤー 1"><path class="cls-1" d="M5.68,4.1l-.51.51-1-1,1-1,.51.51a.14.14,0,0,0,.24-.08l.16-1.74a.14.14,0,0,0-.16-.15l-1.73.15a.15.15,0,0,0-.09.25l.51.51-1,1-1-1,.51-.51a.14.14,0,0,0-.09-.25L1.37,1.22a.13.13,0,0,0-.15.15l.15,1.74a.14.14,0,0,0,.25.08l.51-.51,1,1-1,1L1.62,4.1a.15.15,0,0,0-.25.09L1.22,5.92a.14.14,0,0,0,.15.16l1.74-.16a.14.14,0,0,0,.08-.24l-.51-.51,1-1,1,1-.51.51a.14.14,0,0,0,.09.24l1.73.16a.15.15,0,0,0,.16-.16L5.92,4.19A.14.14,0,0,0,5.68,4.1Z"/><path class="cls-2" d="M1.36,6.23a.29.29,0,0,1-.21-.09.27.27,0,0,1-.08-.23l.15-1.73a.29.29,0,0,1,.2-.25.27.27,0,0,1,.3.07l.41.4.75-.75L2.13,2.9l-.41.4a.28.28,0,0,1-.3.07.3.3,0,0,1-.2-.25L1.07,1.39a.31.31,0,0,1,.08-.24.3.3,0,0,1,.24-.08l1.73.15a.3.3,0,0,1,.25.2.28.28,0,0,1-.07.3l-.4.41.75.75.75-.75L4,1.72a.27.27,0,0,1-.07-.3.29.29,0,0,1,.25-.2l1.73-.15a.27.27,0,0,1,.23.08.3.3,0,0,1,.09.24L6.07,3.12a.29.29,0,0,1-.19.25.3.3,0,0,1-.31-.07l-.4-.4-.76.75.76.75.4-.4a.28.28,0,0,1,.31-.07.28.28,0,0,1,.19.25l.16,1.73a.31.31,0,0,1-.32.32L4.18,6.07a.28.28,0,0,1-.25-.19A.28.28,0,0,1,4,5.57l.4-.4-.75-.76-.75.76.4.4a.3.3,0,0,1,.07.31.29.29,0,0,1-.25.19l-1.73.16Zm.16-2L1.37,5.93l1.71-.15-.61-.61L3.65,4,4.82,5.17l-.6.61,1.71.15L5.78,4.22l-.61.6L4,3.65,5.17,2.47l.61.62.15-1.73-1.71.16.6.61L3.65,3.31,2.47,2.13l.62-.62L1.36,1.37l.16,1.71.61-.61L3.31,3.65,2.13,4.82Z"/><rect class="cls-3" width="7.3" height="7.3"/></g></g></svg>