<svg xmlns="http://www.w3.org/2000/svg" viewBox="0 0 7.28 7.28"><defs><style>.cls-1{fill:none;}.cls-2{fill:#fff;}.cls-3{fill:#998d95;}</style></defs><title>pen_tool</title><g id="レイヤー_2" data-name="レイヤー 2"><g id="レイヤー_1-2" data-name="レイヤー 1"><rect class="cls-1" width="7.28" height="7.28"/><rect class="cls-2" x="3.37" y="1.08" width="2.6" height="1.16" transform="translate(7.97 5.37) rotate(-151.05)"/><path class="cls-2" d="M4.8,5.16l.36-1.84L3,2.13,1.65,3.41a.74.74,0,0,0-.2.6l.29,2.64A.19.19,0,0,0,2,6.8L4.4,5.64A.71.71,0,0,0,4.8,5.16Z"/><path class="cls-3" d="M3.76.32,3.05,1.59,5.59,3,6.3,1.72ZM5.48,2.59l-2-1.11L3.88.72l2,1.12Z"/><path class="cls-3" d="M1.54,3.31A.9.9,0,0,0,1.3,4l.29,2.64a.36.36,0,0,0,.17.26.33.33,0,0,0,.17,0l.15,0L4.47,5.78a.87.87,0,0,0,.47-.59l.39-1.95L3,2ZM5,3.39,4.65,5.12a.61.61,0,0,1-.31.39L2.12,6.58l1-1.87h.08l.13,0a.45.45,0,0,0,.29-.23.47.47,0,0,0,0-.35.51.51,0,0,0-.23-.29A.48.48,0,0,0,2.83,4a.45.45,0,0,0,.07.54l-1,1.87L1.6,4a.63.63,0,0,1,.15-.48L3,2.32Zm-1.9.77a.18.18,0,0,1,.15-.08.15.15,0,0,1,.09,0,.16.16,0,0,1,.08.1.15.15,0,0,1,0,.13h0a.14.14,0,0,1-.1.08.2.2,0,0,1-.13,0A.19.19,0,0,1,3.09,4.16Z"/></g></g></svg>