<svg xmlns="http://www.w3.org/2000/svg" viewBox="0 0 6.58 9.2"><defs><style>.pin_cls-1{fill:#fff;}.pin_cls-2{fill:#998d95;}</style></defs><title>pin</title><g id="レイヤー_2" data-name="レイヤー 2"><g id="レイヤー_1-2" data-name="レイヤー 1"><path class="pin_cls-1" d="M6.42,3.29A3.13,3.13,0,0,0,2.94.17,3.14,3.14,0,0,0,1,5.4H1a9.93,9.93,0,0,1,2,3.39.39.39,0,0,0,.73,0A10.27,10.27,0,0,1,5.6,5.4h0A3.12,3.12,0,0,0,6.42,3.29Z"/><path class="pin_cls-2" d="M3.29,9.2a.54.54,0,0,1-.51-.36A9.85,9.85,0,0,0,.86,5.5,3.29,3.29,0,0,1,5.48.84,3.26,3.26,0,0,1,5.71,5.5,10.19,10.19,0,0,0,3.79,8.84.52.52,0,0,1,3.29,9.2Zm0-8.9L3,.32a3,3,0,0,0-1.87,5,10.3,10.3,0,0,1,2,3.44.23.23,0,0,0,.44,0,10.27,10.27,0,0,1,2-3.44,3,3,0,0,0,.78-2,3,3,0,0,0-1-2.23A2.93,2.93,0,0,0,3.29.3Z"/><path class="pin_cls-2" d="M3.29,4.14a.85.85,0,1,1,.85-.85A.85.85,0,0,1,3.29,4.14Zm0-1.4a.54.54,0,0,0-.55.55.55.55,0,0,0,.55.55.55.55,0,0,0,.55-.55A.55.55,0,0,0,3.29,2.74Z"/></g></g></svg>