<svg xmlns="http://www.w3.org/2000/svg" viewBox="0 0 7.3 7.3"><defs><style>.cls-1{fill:none;}.cls-2{fill:#998d95;}.cls-3{fill:#fff;}</style></defs><title>share</title><g id="レイヤー_2" data-name="レイヤー 2"><g id="レイヤー_1-2" data-name="レイヤー 1"><rect class="cls-1" width="7.3" height="7.3"/><path class="cls-2" d="M5.2,5.46,2,3.78a.14.14,0,0,1-.08-.13A.16.16,0,0,1,2,3.51L5.2,1.84l.14.26-3,1.55,3,1.54Z"/><circle class="cls-3" cx="2.03" cy="3.65" r="1.02"/><circle class="cls-3" cx="5.27" cy="1.97" r="1.02"/><circle class="cls-3" cx="5.27" cy="5.32" r="1.02"/><path class="cls-2" d="M5.27,3.14A1.17,1.17,0,0,1,5.27.8a1.17,1.17,0,1,1,0,2.34Zm0-2A.87.87,0,1,0,6.14,2,.87.87,0,0,0,5.27,1.1Z"/><path class="cls-2" d="M2,4.82A1.17,1.17,0,1,1,3.2,3.65,1.17,1.17,0,0,1,2,4.82Zm0-2a.87.87,0,1,0,.87.87A.87.87,0,0,0,2,2.78Z"/><path class="cls-2" d="M5.27,6.49A1.17,1.17,0,1,1,6.44,5.33,1.16,1.16,0,0,1,5.27,6.49Zm0-2a.87.87,0,1,0,.87.87A.87.87,0,0,0,5.27,4.46Z"/></g></g></svg>