<svg xmlns="http://www.w3.org/2000/svg" viewBox="0 0 7.3 7.3"><defs><style>.cls-1{fill:#fff;}.cls-2{fill:#998d95;}.cls-3{fill:none;}</style></defs><title>stock</title><g id="レイヤー_2" data-name="レイヤー 2"><g id="レイヤー_1-2" data-name="レイヤー 1"><path class="cls-1" d="M1.8,5.66a.6.6,0,1,0,0,1.19H5.62V5.66Z"/><path class="cls-1" d="M1.8.45A.6.6,0,0,0,1.2,1V6.25h0a.6.6,0,0,1,.6-.59H6.09V.45Z"/><path class="cls-2" d="M6.24,5.81V.3H1.8A.75.75,0,0,0,1.05,1V6.25A.76.76,0,0,0,1.8,7H6.24V6.7H5.77V5.81ZM1.35,1A.45.45,0,0,1,1.8.6H5.94V5.51H1.8a.76.76,0,0,0-.27,0l-.07,0-.11.06ZM5.47,6.7H1.8a.45.45,0,1,1,0-.89H5.47Z"/><rect class="cls-2" x="2" y="0.6" width="0.3" height="4.9"/><rect class="cls-2" x="2.96" y="1.32" width="2.31" height="0.3"/><rect class="cls-2" x="2.96" y="2.16" width="2.31" height="0.3"/><rect class="cls-3" width="7.3" height="7.3"/></g></g></svg>