<svg xmlns="http://www.w3.org/2000/svg" viewBox="0 0 7.3 7.3"><defs><style>.cls-1{fill:none;}.cls-2{fill:#fff;}.cls-3{fill:#998d95;}</style></defs><title>tag</title><g id="レイヤー_2" data-name="レイヤー 2"><g id="レイヤー_1-2" data-name="レイヤー 1"><rect class="cls-1" width="7.3" height="7.3"/><path class="cls-2" d="M1,1.36V3.61a.79.79,0,0,0,.23.56L3.44,6.38a.42.42,0,0,0,.57,0L6.42,4a.42.42,0,0,0,0-.57L4.21,1.19A.83.83,0,0,0,3.65,1H1.4A.4.4,0,0,0,1,1.36Z"/><path class="cls-3" d="M3.72,6.65a.56.56,0,0,1-.39-.17l-2.2-2.2a1,1,0,0,1-.28-.67V1.36A.55.55,0,0,1,1.4.81H3.65a1,1,0,0,1,.67.28l2.2,2.2a.54.54,0,0,1,0,.78L4.11,6.48A.52.52,0,0,1,3.72,6.65ZM1.4,1.11a.25.25,0,0,0-.25.25V3.61a.66.66,0,0,0,.19.46l2.21,2.2a.24.24,0,0,0,.35,0L6.31,3.86a.24.24,0,0,0,0-.35L4.11,1.3a.68.68,0,0,0-.46-.19Z"/><circle class="cls-2" cx="2.54" cy="2.5" r="0.35"/><path class="cls-3" d="M2.54,3a.47.47,0,0,1-.35-.15.5.5,0,1,1,.71,0A.51.51,0,0,1,2.54,3Zm0-.71a.2.2,0,0,0-.14.06.21.21,0,1,0,.14-.06Z"/></g></g></svg>