<svg xmlns="http://www.w3.org/2000/svg" viewBox="0 0 6.57 9.21"><defs><style>.cls-1{fill:#fff;}.cls-2{fill:#998d95;}</style></defs><title>text_pin</title><g id="レイヤー_2" data-name="レイヤー 2"><g id="レイヤー_1-2" data-name="レイヤー 1"><path class="cls-1" d="M6.42,3.29A3.13,3.13,0,0,0,2.94.17,3.14,3.14,0,0,0,1,5.4H1a9.93,9.93,0,0,1,2,3.39.39.39,0,0,0,.73,0A10.27,10.27,0,0,1,5.6,5.4h0A3.12,3.12,0,0,0,6.42,3.29Z"/><path class="cls-2" d="M3.29,9.21a.55.55,0,0,1-.51-.37A9.94,9.94,0,0,0,.86,5.5,3.29,3.29,0,1,1,6.57,3.29,3.25,3.25,0,0,1,5.71,5.5,10.19,10.19,0,0,0,3.79,8.84a.54.54,0,0,1-.5.37ZM3.29.3,3,.32a3,3,0,0,0-1.87,5,10.3,10.3,0,0,1,2,3.44.23.23,0,0,0,.22.16h0a.23.23,0,0,0,.22-.16,10.27,10.27,0,0,1,2-3.44,3,3,0,0,0,.78-2,3,3,0,0,0-1-2.23A3,3,0,0,0,3.29.3Z"/><rect class="cls-2" x="2.21" y="2.24" width="2.16" height="0.3"/><rect class="cls-2" x="2.21" y="3.01" width="2.16" height="0.3"/><rect class="cls-2" x="2.21" y="3.78" width="1.15" height="0.3"/><path class="cls-2" d="M5.16,5.19H1.41V1.44H5.16Zm-3.45-.3H4.86V1.74H1.71Z"/></g></g></svg>