<svg xmlns="http://www.w3.org/2000/svg" viewBox="0 0 10.25 10.25"><defs><style>.cls-1{fill:none;}.cls-2{fill:#1da1f2;}</style></defs><title>twitter</title><g id="レイヤー_2" data-name="レイヤー 2"><g id="レイヤー_1-2" data-name="レイヤー 1"><rect class="cls-1" width="10.25" height="10.25"/><path class="cls-2" d="M3.93,7.72A3.71,3.71,0,0,0,7.67,4V3.82a2.62,2.62,0,0,0,.65-.68,2.77,2.77,0,0,1-.75.2,1.34,1.34,0,0,0,.58-.72,2.76,2.76,0,0,1-.84.32A1.31,1.31,0,0,0,5.07,4.13a3.7,3.7,0,0,1-2.7-1.37,1.33,1.33,0,0,0,.4,1.76,1.34,1.34,0,0,1-.59-.17v0a1.33,1.33,0,0,0,1,1.29,1.31,1.31,0,0,1-.59,0,1.31,1.31,0,0,0,1.23.91,2.63,2.63,0,0,1-1.64.56,1.62,1.62,0,0,1-.31,0,3.69,3.69,0,0,0,2,.59"/></g></g></svg>