<svg xmlns="http://www.w3.org/2000/svg" viewBox="0 0 7.28 7.28"><defs><style>.cls-1{fill:#fff;}.cls-2{fill:#998d95;}.cls-3{fill:none;}</style></defs><title>way_tool</title><g id="レイヤー_2" data-name="レイヤー 2"><g id="レイヤー_1-2" data-name="レイヤー 1"><path class="cls-1" d="M2.17.51a1.29,1.29,0,0,0-.8,2.14A4.06,4.06,0,0,1,2.17,4a.15.15,0,0,0,.29,0,4.06,4.06,0,0,1,.8-1.38A1.28,1.28,0,0,0,2.17.51Z"/><path class="cls-1" d="M4.82,3.15A1.28,1.28,0,0,0,4,5.28a4.09,4.09,0,0,1,.8,1.38.16.16,0,0,0,.3,0A4.06,4.06,0,0,1,5.9,5.28,1.27,1.27,0,0,0,4.82,3.15Z"/><path class="cls-2" d="M5.91,3.35A1.4,1.4,0,0,0,4.8,3a1.43,1.43,0,0,0-.9,2.38A3.65,3.65,0,0,1,4.36,6L2.53,4.2a.36.36,0,0,0,.08-.12,3.91,3.91,0,0,1,.76-1.33,1.46,1.46,0,0,0,.38-1A1.44,1.44,0,0,0,2.16.36,1.44,1.44,0,0,0,.9,1.62a1.39,1.39,0,0,0,.36,1.12A4.26,4.26,0,0,1,2,4.08a.26.26,0,0,0,.07.11h0L4.74,6.83A.29.29,0,0,0,5,6.92a.3.3,0,0,0,.29-.21A3.91,3.91,0,0,1,6,5.38a1.39,1.39,0,0,0,.38-1A1.45,1.45,0,0,0,5.91,3.35ZM1.48,2.54a1.13,1.13,0,0,1-.29-.88,1.15,1.15,0,0,1,1-1h.13A1.12,1.12,0,0,1,3.45,1.78a1.16,1.16,0,0,1-.3.77A4.26,4.26,0,0,0,2.32,4h0a0,0,0,0,1,0,0A4.41,4.41,0,0,0,1.48,2.54ZM5.79,5.18A4.26,4.26,0,0,0,5,6.61l.14,0L5,6.61a4.26,4.26,0,0,0-.82-1.43,1.09,1.09,0,0,1-.29-.89,1.11,1.11,0,0,1,1-1H5a1.1,1.1,0,0,1,.75.29,1.12,1.12,0,0,1,.38.84A1.14,1.14,0,0,1,5.79,5.18Z"/><path class="cls-2" d="M2.75,1.78a.43.43,0,0,0-.43-.43.44.44,0,0,0-.44.43.44.44,0,0,0,.44.44A.44.44,0,0,0,2.75,1.78Zm-.57,0a.13.13,0,0,1,.14-.13.13.13,0,0,1,.13.13.13.13,0,0,1-.13.14A.14.14,0,0,1,2.18,1.78Z"/><path class="cls-2" d="M5,4a.44.44,0,0,0-.44.44A.44.44,0,0,0,5,4.85a.43.43,0,0,0,.43-.43A.44.44,0,0,0,5,4Zm0,.57a.13.13,0,0,1-.14-.13A.14.14,0,0,1,5,4.28a.13.13,0,0,1,.13.14A.13.13,0,0,1,5,4.55Z"/><rect class="cls-3" width="7.28" height="7.28"/></g></g></svg>